<svg width="525" height="39" viewBox="0 0 525 39" fill="none" xmlns="http://www.w3.org/2000/svg">
<path d="M5.344 12.224C4.01067 12.224 2.944 11.84 2.144 11.072C1.35467 10.2933 0.96 9.16267 0.96 7.68V5.12C0.96 3.63733 1.35467 2.512 2.144 1.744C2.944 0.965333 4.01067 0.575999 5.344 0.575999C6.688 0.575999 7.75467 0.965333 8.544 1.744C9.344 2.512 9.744 3.63733 9.744 5.12V7.68C9.744 9.16267 9.344 10.2933 8.544 11.072C7.75467 11.84 6.688 12.224 5.344 12.224ZM5.344 11.024C6.31467 11.024 7.06667 10.736 7.6 10.16C8.13333 9.57333 8.4 8.76267 8.4 7.728V5.072C8.4 4.03733 8.13333 3.232 7.6 2.656C7.06667 2.06933 6.31467 1.776 5.344 1.776C4.384 1.776 3.63733 2.06933 3.104 2.656C2.57067 3.232 2.304 4.03733 2.304 5.072V7.728C2.304 8.76267 2.57067 9.57333 3.104 10.16C3.63733 10.736 4.384 11.024 5.344 11.024ZM12.0311 12V4.176H13.2631V5.504H13.4871C13.6578 5.13067 13.9458 4.79467 14.3511 4.496C14.7671 4.18667 15.3751 4.032 16.1751 4.032C16.7618 4.032 17.2845 4.15467 17.7431 4.4C18.2125 4.64533 18.5858 5.008 18.8631 5.488C19.1405 5.968 19.2791 6.56 19.2791 7.264V12H18.0151V7.36C18.0151 6.58133 17.8178 6.016 17.4231 5.664C17.0391 5.312 16.5165 5.136 15.8551 5.136C15.0978 5.136 14.4791 5.38133 13.9991 5.872C13.5298 6.36267 13.2951 7.09333 13.2951 8.064V12H12.0311ZM25.4276 12.224C24.6383 12.224 23.945 12.0587 23.3476 11.728C22.7503 11.3867 22.2863 10.912 21.9556 10.304C21.625 9.696 21.4596 8.992 21.4596 8.192V8C21.4596 7.18933 21.625 6.48 21.9556 5.872C22.2863 5.264 22.745 4.79467 23.3316 4.464C23.9183 4.12267 24.5903 3.952 25.3476 3.952C26.0836 3.952 26.7343 4.112 27.2996 4.432C27.865 4.74133 28.3076 5.18933 28.6276 5.776C28.9476 6.36267 29.1076 7.05067 29.1076 7.84V8.416H22.7236C22.7556 9.25867 23.0276 9.92 23.5396 10.4C24.0516 10.8693 24.6916 11.104 25.4596 11.104C26.1316 11.104 26.649 10.9493 27.0116 10.64C27.3743 10.3307 27.6516 9.96267 27.8436 9.536L28.9316 10.064C28.7716 10.3947 28.5476 10.7253 28.2596 11.056C27.9823 11.3867 27.6143 11.664 27.1556 11.888C26.7076 12.112 26.1316 12.224 25.4276 12.224ZM22.7396 7.376H27.8276C27.785 6.65067 27.5343 6.08533 27.0756 5.68C26.6276 5.27467 26.0516 5.072 25.3476 5.072C24.633 5.072 24.0463 5.27467 23.5876 5.68C23.129 6.08533 22.8463 6.65067 22.7396 7.376ZM39.0378 12.224C38.2484 12.224 37.5498 12.0587 36.9418 11.728C36.3444 11.3973 35.8751 10.9333 35.5338 10.336C35.2031 9.728 35.0378 9.01333 35.0378 8.192V7.984C35.0378 7.17333 35.2031 6.464 35.5338 5.856C35.8751 5.248 36.3444 4.77867 36.9418 4.448C37.5498 4.11733 38.2484 3.952 39.0378 3.952C39.8271 3.952 40.5204 4.11733 41.1178 4.448C41.7258 4.77867 42.1951 5.248 42.5258 5.856C42.8671 6.464 43.0378 7.17333 43.0378 7.984V8.192C43.0378 9.01333 42.8671 9.728 42.5258 10.336C42.1951 10.9333 41.7258 11.3973 41.1178 11.728C40.5204 12.0587 39.8271 12.224 39.0378 12.224ZM39.0378 11.088C39.8698 11.088 40.5311 10.8267 41.0218 10.304C41.5231 9.77067 41.7738 9.056 41.7738 8.16V8.016C41.7738 7.12 41.5231 6.41067 41.0218 5.888C40.5311 5.35467 39.8698 5.088 39.0378 5.088C38.2164 5.088 37.5551 5.35467 37.0538 5.888C36.5524 6.41067 36.3018 7.12 36.3018 8.016V8.16C36.3018 9.056 36.5524 9.77067 37.0538 10.304C37.5551 10.8267 38.2164 11.088 39.0378 11.088ZM46.5359 12V5.28H44.1359V4.176H46.5359V2.176C46.5359 1.74933 46.6532 1.41333 46.8879 1.168C47.1332 0.922666 47.4799 0.799999 47.9279 0.799999H49.8959V1.888H48.2799C47.9599 1.888 47.7999 2.048 47.7999 2.368V4.176H50.2639V5.28H47.7999V12H46.5359ZM59.0674 12C58.6194 12 58.2727 11.8773 58.0274 11.632C57.7927 11.3867 57.6754 11.0507 57.6754 10.624V5.28H55.3234V4.176H57.6754V1.392H58.9394V4.176H61.4994V5.28H58.9394V10.432C58.9394 10.752 59.094 10.912 59.4034 10.912H61.1474V12H59.0674ZM63.5468 12V0.799999H64.8108V5.424H65.0348C65.1414 5.18933 65.3014 4.97067 65.5148 4.768C65.7388 4.55467 66.0214 4.37867 66.3628 4.24C66.7148 4.10133 67.1574 4.032 67.6908 4.032C68.2774 4.032 68.8001 4.16 69.2588 4.416C69.7281 4.66133 70.1014 5.024 70.3788 5.504C70.6561 5.97333 70.7948 6.56 70.7948 7.264V12H69.5308V7.36C69.5308 6.58133 69.3334 6.016 68.9388 5.664C68.5548 5.312 68.0321 5.136 67.3708 5.136C66.6134 5.136 65.9948 5.38133 65.5148 5.872C65.0454 6.36267 64.8108 7.09333 64.8108 8.064V12H63.5468ZM76.9433 12.224C76.1539 12.224 75.4606 12.0587 74.8633 11.728C74.2659 11.3867 73.8019 10.912 73.4713 10.304C73.1406 9.696 72.9753 8.992 72.9753 8.192V8C72.9753 7.18933 73.1406 6.48 73.4713 5.872C73.8019 5.264 74.2606 4.79467 74.8473 4.464C75.4339 4.12267 76.1059 3.952 76.8633 3.952C77.5993 3.952 78.2499 4.112 78.8153 4.432C79.3806 4.74133 79.8233 5.18933 80.1433 5.776C80.4633 6.36267 80.6233 7.05067 80.6233 7.84V8.416H74.2393C74.2713 9.25867 74.5433 9.92 75.0553 10.4C75.5673 10.8693 76.2073 11.104 76.9753 11.104C77.6473 11.104 78.1646 10.9493 78.5273 10.64C78.8899 10.3307 79.1673 9.96267 79.3593 9.536L80.4473 10.064C80.2873 10.3947 80.0633 10.7253 79.7753 11.056C79.4979 11.3867 79.1299 11.664 78.6713 11.888C78.2233 12.112 77.6473 12.224 76.9433 12.224ZM74.2553 7.376H79.3433C79.3006 6.65067 79.0499 6.08533 78.5913 5.68C78.1433 5.27467 77.5673 5.072 76.8633 5.072C76.1486 5.072 75.5619 5.27467 75.1033 5.68C74.6446 6.08533 74.3619 6.65067 74.2553 7.376ZM86.9374 12V4.176H88.1694V5.152H88.3934C88.5427 4.87467 88.788 4.61867 89.1294 4.384C89.4707 4.14933 89.9507 4.032 90.5694 4.032C91.1774 4.032 91.668 4.16533 92.0414 4.432C92.4254 4.69867 92.7027 5.024 92.8734 5.408H93.0974C93.2787 5.024 93.5507 4.69867 93.9134 4.432C94.2867 4.16533 94.804 4.032 95.4654 4.032C95.988 4.032 96.4467 4.13867 96.8414 4.352C97.236 4.56533 97.5454 4.87467 97.7694 5.28C98.004 5.67467 98.1214 6.14933 98.1214 6.704V12H96.8574V6.816C96.8574 6.29333 96.7027 5.88267 96.3934 5.584C96.0947 5.27467 95.6734 5.12 95.1294 5.12C94.5534 5.12 94.0787 5.30667 93.7054 5.68C93.3427 6.05333 93.1614 6.592 93.1614 7.296V12H91.8974V6.816C91.8974 6.29333 91.7427 5.88267 91.4334 5.584C91.1347 5.27467 90.7134 5.12 90.1694 5.12C89.5934 5.12 89.1187 5.30667 88.7454 5.68C88.3827 6.05333 88.2014 6.592 88.2014 7.296V12H86.9374ZM104.319 12.224C103.53 12.224 102.831 12.0587 102.223 11.728C101.626 11.3973 101.156 10.9333 100.815 10.336C100.484 9.728 100.319 9.01333 100.319 8.192V7.984C100.319 7.17333 100.484 6.464 100.815 5.856C101.156 5.248 101.626 4.77867 102.223 4.448C102.831 4.11733 103.53 3.952 104.319 3.952C105.108 3.952 105.802 4.11733 106.399 4.448C107.007 4.77867 107.476 5.248 107.807 5.856C108.148 6.464 108.319 7.17333 108.319 7.984V8.192C108.319 9.01333 108.148 9.728 107.807 10.336C107.476 10.9333 107.007 11.3973 106.399 11.728C105.802 12.0587 105.108 12.224 104.319 12.224ZM104.319 11.088C105.151 11.088 105.812 10.8267 106.303 10.304C106.804 9.77067 107.055 9.056 107.055 8.16V8.016C107.055 7.12 106.804 6.41067 106.303 5.888C105.812 5.35467 105.151 5.088 104.319 5.088C103.498 5.088 102.836 5.35467 102.335 5.888C101.834 6.41067 101.583 7.12 101.583 8.016V8.16C101.583 9.056 101.834 9.77067 102.335 10.304C102.836 10.8267 103.498 11.088 104.319 11.088ZM113.746 12.224C112.775 12.224 111.954 12 111.282 11.552C110.62 11.104 110.22 10.3947 110.082 9.424L111.282 9.152C111.367 9.664 111.527 10.0693 111.762 10.368C111.996 10.656 112.284 10.864 112.626 10.992C112.978 11.1093 113.351 11.168 113.746 11.168C114.332 11.168 114.796 11.0507 115.138 10.816C115.479 10.5813 115.65 10.2667 115.65 9.872C115.65 9.46667 115.484 9.184 115.154 9.024C114.834 8.85333 114.391 8.71467 113.826 8.608L113.17 8.496C112.668 8.41067 112.21 8.27733 111.794 8.096C111.378 7.91467 111.047 7.66933 110.802 7.36C110.556 7.05067 110.434 6.66133 110.434 6.192C110.434 5.488 110.706 4.93867 111.25 4.544C111.794 4.14933 112.514 3.952 113.41 3.952C114.295 3.952 115.01 4.15467 115.554 4.56C116.108 4.95467 116.466 5.51467 116.626 6.24L115.442 6.544C115.346 5.97867 115.116 5.584 114.754 5.36C114.391 5.12533 113.943 5.008 113.41 5.008C112.876 5.008 112.455 5.10933 112.146 5.312C111.836 5.504 111.682 5.792 111.682 6.176C111.682 6.54933 111.826 6.82667 112.114 7.008C112.412 7.17867 112.807 7.30667 113.298 7.392L113.954 7.504C114.508 7.6 115.004 7.73333 115.442 7.904C115.89 8.064 116.242 8.29867 116.498 8.608C116.764 8.91733 116.898 9.32267 116.898 9.824C116.898 10.592 116.61 11.184 116.034 11.6C115.468 12.016 114.706 12.224 113.746 12.224ZM121.739 12C121.291 12 120.945 11.8773 120.699 11.632C120.465 11.3867 120.347 11.0507 120.347 10.624V5.28H117.995V4.176H120.347V1.392H121.611V4.176H124.171V5.28H121.611V10.432C121.611 10.752 121.766 10.912 122.075 10.912H123.819V12H121.739ZM130.328 12V4.176H131.592V12H130.328ZM130.968 2.96C130.691 2.96 130.456 2.86933 130.264 2.688C130.083 2.50667 129.992 2.27733 129.992 2C129.992 1.712 130.083 1.47733 130.264 1.296C130.456 1.11467 130.691 1.024 130.968 1.024C131.245 1.024 131.475 1.11467 131.656 1.296C131.837 1.47733 131.928 1.712 131.928 2C131.928 2.27733 131.837 2.50667 131.656 2.688C131.475 2.86933 131.245 2.96 130.968 2.96ZM137.85 12.224C137.093 12.224 136.41 12.064 135.802 11.744C135.205 11.4133 134.73 10.944 134.378 10.336C134.037 9.728 133.866 9.008 133.866 8.176V8C133.866 7.15733 134.037 6.43733 134.378 5.84C134.73 5.232 135.205 4.768 135.802 4.448C136.41 4.11733 137.093 3.952 137.85 3.952C138.597 3.952 139.231 4.09067 139.754 4.368C140.287 4.64533 140.703 5.01333 141.002 5.472C141.311 5.93067 141.509 6.42133 141.594 6.944L140.362 7.2C140.309 6.816 140.181 6.464 139.978 6.144C139.786 5.824 139.514 5.568 139.162 5.376C138.81 5.184 138.378 5.088 137.866 5.088C137.343 5.088 136.874 5.20533 136.458 5.44C136.053 5.67467 135.727 6.01067 135.482 6.448C135.247 6.88533 135.13 7.408 135.13 8.016V8.16C135.13 8.768 135.247 9.29067 135.482 9.728C135.727 10.1653 136.053 10.5013 136.458 10.736C136.874 10.9707 137.343 11.088 137.866 11.088C138.645 11.088 139.237 10.8853 139.642 10.48C140.058 10.0747 140.314 9.57333 140.41 8.976L141.658 9.248C141.541 9.76 141.327 10.2453 141.018 10.704C140.709 11.1627 140.287 11.5307 139.754 11.808C139.231 12.0853 138.597 12.224 137.85 12.224ZM147.428 12.224C146.639 12.224 145.94 12.0587 145.332 11.728C144.735 11.3973 144.266 10.9333 143.924 10.336C143.594 9.728 143.428 9.01333 143.428 8.192V7.984C143.428 7.17333 143.594 6.464 143.924 5.856C144.266 5.248 144.735 4.77867 145.332 4.448C145.94 4.11733 146.639 3.952 147.428 3.952C148.218 3.952 148.911 4.11733 149.508 4.448C150.116 4.77867 150.586 5.248 150.916 5.856C151.258 6.464 151.428 7.17333 151.428 7.984V8.192C151.428 9.01333 151.258 9.728 150.916 10.336C150.586 10.9333 150.116 11.3973 149.508 11.728C148.911 12.0587 148.218 12.224 147.428 12.224ZM147.428 11.088C148.26 11.088 148.922 10.8267 149.412 10.304C149.914 9.77067 150.164 9.056 150.164 8.16V8.016C150.164 7.12 149.914 6.41067 149.412 5.888C148.922 5.35467 148.26 5.088 147.428 5.088C146.607 5.088 145.946 5.35467 145.444 5.888C144.943 6.41067 144.692 7.12 144.692 8.016V8.16C144.692 9.056 144.943 9.77067 145.444 10.304C145.946 10.8267 146.607 11.088 147.428 11.088ZM153.703 12V4.176H154.935V5.504H155.159C155.33 5.13067 155.618 4.79467 156.023 4.496C156.439 4.18667 157.047 4.032 157.847 4.032C158.434 4.032 158.956 4.15467 159.415 4.4C159.884 4.64533 160.258 5.008 160.535 5.488C160.812 5.968 160.951 6.56 160.951 7.264V12H159.687V7.36C159.687 6.58133 159.49 6.016 159.095 5.664C158.711 5.312 158.188 5.136 157.527 5.136C156.77 5.136 156.151 5.38133 155.671 5.872C155.202 6.36267 154.967 7.09333 154.967 8.064V12H153.703ZM163.516 12V4.176H164.78V12H163.516ZM164.156 2.96C163.878 2.96 163.644 2.86933 163.452 2.688C163.27 2.50667 163.18 2.27733 163.18 2C163.18 1.712 163.27 1.47733 163.452 1.296C163.644 1.11467 163.878 1.024 164.156 1.024C164.433 1.024 164.662 1.11467 164.844 1.296C165.025 1.47733 165.116 1.712 165.116 2C165.116 2.27733 165.025 2.50667 164.844 2.688C164.662 2.86933 164.433 2.96 164.156 2.96ZM171.037 12.224C170.28 12.224 169.597 12.064 168.989 11.744C168.392 11.4133 167.917 10.944 167.565 10.336C167.224 9.728 167.053 9.008 167.053 8.176V8C167.053 7.15733 167.224 6.43733 167.565 5.84C167.917 5.232 168.392 4.768 168.989 4.448C169.597 4.11733 170.28 3.952 171.037 3.952C171.784 3.952 172.419 4.09067 172.941 4.368C173.475 4.64533 173.891 5.01333 174.189 5.472C174.499 5.93067 174.696 6.42133 174.781 6.944L173.549 7.2C173.496 6.816 173.368 6.464 173.165 6.144C172.973 5.824 172.701 5.568 172.349 5.376C171.997 5.184 171.565 5.088 171.053 5.088C170.531 5.088 170.061 5.20533 169.645 5.44C169.24 5.67467 168.915 6.01067 168.669 6.448C168.435 6.88533 168.317 7.408 168.317 8.016V8.16C168.317 8.768 168.435 9.29067 168.669 9.728C168.915 10.1653 169.24 10.5013 169.645 10.736C170.061 10.9707 170.531 11.088 171.053 11.088C171.832 11.088 172.424 10.8853 172.829 10.48C173.245 10.0747 173.501 9.57333 173.597 8.976L174.845 9.248C174.728 9.76 174.515 10.2453 174.205 10.704C173.896 11.1627 173.475 11.5307 172.941 11.808C172.419 12.0853 171.784 12.224 171.037 12.224ZM182.645 12V5.28H180.245V4.176H182.645V2.176C182.645 1.74933 182.763 1.41333 182.997 1.168C183.243 0.922666 183.589 0.799999 184.037 0.799999H186.005V1.888H184.389C184.069 1.888 183.909 2.048 183.909 2.368V4.176H186.373V5.28H183.909V12H182.645ZM187.797 12V4.176H189.061V12H187.797ZM188.437 2.96C188.159 2.96 187.925 2.86933 187.733 2.688C187.551 2.50667 187.461 2.27733 187.461 2C187.461 1.712 187.551 1.47733 187.733 1.296C187.925 1.11467 188.159 1.024 188.437 1.024C188.714 1.024 188.943 1.11467 189.125 1.296C189.306 1.47733 189.397 1.712 189.397 2C189.397 2.27733 189.306 2.50667 189.125 2.688C188.943 2.86933 188.714 2.96 188.437 2.96ZM195.319 12.224C194.561 12.224 193.879 12.064 193.271 11.744C192.673 11.4133 192.199 10.944 191.847 10.336C191.505 9.728 191.335 9.008 191.335 8.176V8C191.335 7.15733 191.505 6.43733 191.847 5.84C192.199 5.232 192.673 4.768 193.271 4.448C193.879 4.11733 194.561 3.952 195.319 3.952C196.065 3.952 196.7 4.09067 197.223 4.368C197.756 4.64533 198.172 5.01333 198.471 5.472C198.78 5.93067 198.977 6.42133 199.063 6.944L197.831 7.2C197.777 6.816 197.649 6.464 197.447 6.144C197.255 5.824 196.983 5.568 196.631 5.376C196.279 5.184 195.847 5.088 195.335 5.088C194.812 5.088 194.343 5.20533 193.927 5.44C193.521 5.67467 193.196 6.01067 192.951 6.448C192.716 6.88533 192.599 7.408 192.599 8.016V8.16C192.599 8.768 192.716 9.29067 192.951 9.728C193.196 10.1653 193.521 10.5013 193.927 10.736C194.343 10.9707 194.812 11.088 195.335 11.088C196.113 11.088 196.705 10.8853 197.111 10.48C197.527 10.0747 197.783 9.57333 197.879 8.976L199.127 9.248C199.009 9.76 198.796 10.2453 198.487 10.704C198.177 11.1627 197.756 11.5307 197.223 11.808C196.7 12.0853 196.065 12.224 195.319 12.224ZM203.849 12C203.401 12 203.054 11.8773 202.809 11.632C202.574 11.3867 202.457 11.0507 202.457 10.624V5.28H200.105V4.176H202.457V1.392H203.721V4.176H206.281V5.28H203.721V10.432C203.721 10.752 203.875 10.912 204.185 10.912H205.929V12H203.849ZM208.328 12V4.176H209.592V12H208.328ZM208.968 2.96C208.691 2.96 208.456 2.86933 208.264 2.688C208.083 2.50667 207.992 2.27733 207.992 2C207.992 1.712 208.083 1.47733 208.264 1.296C208.456 1.11467 208.691 1.024 208.968 1.024C209.245 1.024 209.475 1.11467 209.656 1.296C209.837 1.47733 209.928 1.712 209.928 2C209.928 2.27733 209.837 2.50667 209.656 2.688C209.475 2.86933 209.245 2.96 208.968 2.96ZM215.866 12.224C215.077 12.224 214.378 12.0587 213.77 11.728C213.173 11.3973 212.703 10.9333 212.362 10.336C212.031 9.728 211.866 9.01333 211.866 8.192V7.984C211.866 7.17333 212.031 6.464 212.362 5.856C212.703 5.248 213.173 4.77867 213.77 4.448C214.378 4.11733 215.077 3.952 215.866 3.952C216.655 3.952 217.349 4.11733 217.946 4.448C218.554 4.77867 219.023 5.248 219.354 5.856C219.695 6.464 219.866 7.17333 219.866 7.984V8.192C219.866 9.01333 219.695 9.728 219.354 10.336C219.023 10.9333 218.554 11.3973 217.946 11.728C217.349 12.0587 216.655 12.224 215.866 12.224ZM215.866 11.088C216.698 11.088 217.359 10.8267 217.85 10.304C218.351 9.77067 218.602 9.056 218.602 8.16V8.016C218.602 7.12 218.351 6.41067 217.85 5.888C217.359 5.35467 216.698 5.088 215.866 5.088C215.045 5.088 214.383 5.35467 213.882 5.888C213.381 6.41067 213.13 7.12 213.13 8.016V8.16C213.13 9.056 213.381 9.77067 213.882 10.304C214.383 10.8267 215.045 11.088 215.866 11.088ZM222.141 12V4.176H223.373V5.504H223.597C223.767 5.13067 224.055 4.79467 224.461 4.496C224.877 4.18667 225.485 4.032 226.285 4.032C226.871 4.032 227.394 4.15467 227.853 4.4C228.322 4.64533 228.695 5.008 228.973 5.488C229.25 5.968 229.389 6.56 229.389 7.264V12H228.125V7.36C228.125 6.58133 227.927 6.016 227.533 5.664C227.149 5.312 226.626 5.136 225.965 5.136C225.207 5.136 224.589 5.38133 224.109 5.872C223.639 6.36267 223.405 7.09333 223.405 8.064V12H222.141ZM234.353 12.224C233.809 12.224 233.313 12.128 232.865 11.936C232.417 11.744 232.065 11.4667 231.809 11.104C231.553 10.7413 231.425 10.2987 231.425 9.776C231.425 9.24267 231.553 8.80533 231.809 8.464C232.065 8.112 232.417 7.85067 232.865 7.68C233.313 7.49867 233.814 7.408 234.369 7.408H237.009V6.832C237.009 6.27733 236.844 5.84 236.513 5.52C236.193 5.2 235.713 5.04 235.073 5.04C234.444 5.04 233.953 5.19467 233.601 5.504C233.249 5.80267 233.009 6.208 232.881 6.72L231.697 6.336C231.825 5.89867 232.028 5.504 232.305 5.152C232.582 4.78933 232.95 4.50133 233.409 4.288C233.878 4.064 234.438 3.952 235.089 3.952C236.092 3.952 236.87 4.21333 237.425 4.736C237.98 5.248 238.257 5.97333 238.257 6.912V10.448C238.257 10.768 238.406 10.928 238.705 10.928H239.425V12H238.321C237.969 12 237.686 11.904 237.473 11.712C237.26 11.5093 237.153 11.2427 237.153 10.912V10.832H236.961C236.844 11.0347 236.684 11.248 236.481 11.472C236.289 11.6853 236.022 11.8613 235.681 12C235.34 12.1493 234.897 12.224 234.353 12.224ZM234.497 11.136C235.244 11.136 235.846 10.9173 236.305 10.48C236.774 10.032 237.009 9.408 237.009 8.608V8.432H234.417C233.916 8.432 233.5 8.544 233.169 8.768C232.849 8.98133 232.689 9.30667 232.689 9.744C232.689 10.1813 232.854 10.5227 233.185 10.768C233.526 11.0133 233.964 11.136 234.497 11.136ZM241.156 12V0.799999H242.42V12H241.156ZM252.787 12.224C252.03 12.224 251.347 12.064 250.739 11.744C250.142 11.4133 249.667 10.944 249.315 10.336C248.974 9.728 248.803 9.008 248.803 8.176V8C248.803 7.15733 248.974 6.43733 249.315 5.84C249.667 5.232 250.142 4.768 250.739 4.448C251.347 4.11733 252.03 3.952 252.787 3.952C253.534 3.952 254.169 4.09067 254.691 4.368C255.225 4.64533 255.641 5.01333 255.939 5.472C256.249 5.93067 256.446 6.42133 256.531 6.944L255.299 7.2C255.246 6.816 255.118 6.464 254.915 6.144C254.723 5.824 254.451 5.568 254.099 5.376C253.747 5.184 253.315 5.088 252.803 5.088C252.281 5.088 251.811 5.20533 251.395 5.44C250.99 5.67467 250.665 6.01067 250.419 6.448C250.185 6.88533 250.067 7.408 250.067 8.016V8.16C250.067 8.768 250.185 9.29067 250.419 9.728C250.665 10.1653 250.99 10.5013 251.395 10.736C251.811 10.9707 252.281 11.088 252.803 11.088C253.582 11.088 254.174 10.8853 254.579 10.48C254.995 10.0747 255.251 9.57333 255.347 8.976L256.595 9.248C256.478 9.76 256.265 10.2453 255.955 10.704C255.646 11.1627 255.225 11.5307 254.691 11.808C254.169 12.0853 253.534 12.224 252.787 12.224ZM258.75 12V0.799999H260.014V5.424H260.238C260.345 5.18933 260.505 4.97067 260.718 4.768C260.942 4.55467 261.225 4.37867 261.566 4.24C261.918 4.10133 262.361 4.032 262.894 4.032C263.481 4.032 264.003 4.16 264.462 4.416C264.931 4.66133 265.305 5.024 265.582 5.504C265.859 5.97333 265.998 6.56 265.998 7.264V12H264.734V7.36C264.734 6.58133 264.537 6.016 264.142 5.664C263.758 5.312 263.235 5.136 262.574 5.136C261.817 5.136 261.198 5.38133 260.718 5.872C260.249 6.36267 260.014 7.09333 260.014 8.064V12H258.75ZM270.962 12.224C270.418 12.224 269.922 12.128 269.474 11.936C269.026 11.744 268.674 11.4667 268.418 11.104C268.162 10.7413 268.034 10.2987 268.034 9.776C268.034 9.24267 268.162 8.80533 268.418 8.464C268.674 8.112 269.026 7.85067 269.474 7.68C269.922 7.49867 270.424 7.408 270.978 7.408H273.618V6.832C273.618 6.27733 273.453 5.84 273.122 5.52C272.802 5.2 272.322 5.04 271.682 5.04C271.053 5.04 270.562 5.19467 270.21 5.504C269.858 5.80267 269.618 6.208 269.49 6.72L268.306 6.336C268.434 5.89867 268.637 5.504 268.914 5.152C269.192 4.78933 269.56 4.50133 270.018 4.288C270.488 4.064 271.048 3.952 271.698 3.952C272.701 3.952 273.48 4.21333 274.034 4.736C274.589 5.248 274.866 5.97333 274.866 6.912V10.448C274.866 10.768 275.016 10.928 275.314 10.928H276.034V12H274.93C274.578 12 274.296 11.904 274.082 11.712C273.869 11.5093 273.762 11.2427 273.762 10.912V10.832H273.57C273.453 11.0347 273.293 11.248 273.09 11.472C272.898 11.6853 272.632 11.8613 272.29 12C271.949 12.1493 271.506 12.224 270.962 12.224ZM271.106 11.136C271.853 11.136 272.456 10.9173 272.914 10.48C273.384 10.032 273.618 9.408 273.618 8.608V8.432H271.026C270.525 8.432 270.109 8.544 269.778 8.768C269.458 8.98133 269.298 9.30667 269.298 9.744C269.298 10.1813 269.464 10.5227 269.794 10.768C270.136 11.0133 270.573 11.136 271.106 11.136ZM277.766 12V4.176H278.998V5.136H279.222C279.36 4.79467 279.574 4.544 279.862 4.384C280.15 4.224 280.528 4.144 280.998 4.144H281.926V5.296H280.918C280.352 5.296 279.894 5.456 279.542 5.776C279.2 6.08533 279.03 6.57067 279.03 7.232V12H277.766ZM285.931 12.224C285.387 12.224 284.891 12.128 284.443 11.936C283.995 11.744 283.643 11.4667 283.387 11.104C283.131 10.7413 283.003 10.2987 283.003 9.776C283.003 9.24267 283.131 8.80533 283.387 8.464C283.643 8.112 283.995 7.85067 284.443 7.68C284.891 7.49867 285.392 7.408 285.947 7.408H288.587V6.832C288.587 6.27733 288.422 5.84 288.091 5.52C287.771 5.2 287.291 5.04 286.651 5.04C286.022 5.04 285.531 5.19467 285.179 5.504C284.827 5.80267 284.587 6.208 284.459 6.72L283.275 6.336C283.403 5.89867 283.606 5.504 283.883 5.152C284.16 4.78933 284.528 4.50133 284.987 4.288C285.456 4.064 286.016 3.952 286.667 3.952C287.67 3.952 288.448 4.21333 289.003 4.736C289.558 5.248 289.835 5.97333 289.835 6.912V10.448C289.835 10.768 289.984 10.928 290.283 10.928H291.003V12H289.899C289.547 12 289.264 11.904 289.051 11.712C288.838 11.5093 288.731 11.2427 288.731 10.912V10.832H288.539C288.422 11.0347 288.262 11.248 288.059 11.472C287.867 11.6853 287.6 11.8613 287.259 12C286.918 12.1493 286.475 12.224 285.931 12.224ZM286.075 11.136C286.822 11.136 287.424 10.9173 287.883 10.48C288.352 10.032 288.587 9.408 288.587 8.608V8.432H285.995C285.494 8.432 285.078 8.544 284.747 8.768C284.427 8.98133 284.267 9.30667 284.267 9.744C284.267 10.1813 284.432 10.5227 284.763 10.768C285.104 11.0133 285.542 11.136 286.075 11.136ZM296.116 12.224C295.358 12.224 294.676 12.064 294.068 11.744C293.47 11.4133 292.996 10.944 292.644 10.336C292.302 9.728 292.132 9.008 292.132 8.176V8C292.132 7.15733 292.302 6.43733 292.644 5.84C292.996 5.232 293.47 4.768 294.068 4.448C294.676 4.11733 295.358 3.952 296.116 3.952C296.862 3.952 297.497 4.09067 298.02 4.368C298.553 4.64533 298.969 5.01333 299.267 5.472C299.577 5.93067 299.774 6.42133 299.86 6.944L298.628 7.2C298.574 6.816 298.446 6.464 298.244 6.144C298.052 5.824 297.78 5.568 297.428 5.376C297.076 5.184 296.644 5.088 296.132 5.088C295.609 5.088 295.14 5.20533 294.724 5.44C294.318 5.67467 293.993 6.01067 293.748 6.448C293.513 6.88533 293.396 7.408 293.396 8.016V8.16C293.396 8.768 293.513 9.29067 293.748 9.728C293.993 10.1653 294.318 10.5013 294.724 10.736C295.14 10.9707 295.609 11.088 296.132 11.088C296.91 11.088 297.502 10.8853 297.908 10.48C298.324 10.0747 298.58 9.57333 298.676 8.976L299.924 9.248C299.806 9.76 299.593 10.2453 299.284 10.704C298.974 11.1627 298.553 11.5307 298.02 11.808C297.497 12.0853 296.862 12.224 296.116 12.224ZM304.646 12C304.198 12 303.851 11.8773 303.606 11.632C303.371 11.3867 303.254 11.0507 303.254 10.624V5.28H300.902V4.176H303.254V1.392H304.518V4.176H307.078V5.28H304.518V10.432C304.518 10.752 304.672 10.912 304.982 10.912H306.726V12H304.646ZM312.428 12.224C311.638 12.224 310.945 12.0587 310.348 11.728C309.75 11.3867 309.286 10.912 308.956 10.304C308.625 9.696 308.46 8.992 308.46 8.192V8C308.46 7.18933 308.625 6.48 308.956 5.872C309.286 5.264 309.745 4.79467 310.332 4.464C310.918 4.12267 311.59 3.952 312.348 3.952C313.084 3.952 313.734 4.112 314.3 4.432C314.865 4.74133 315.308 5.18933 315.628 5.776C315.948 6.36267 316.108 7.05067 316.108 7.84V8.416H309.724C309.756 9.25867 310.028 9.92 310.54 10.4C311.052 10.8693 311.692 11.104 312.46 11.104C313.132 11.104 313.649 10.9493 314.012 10.64C314.374 10.3307 314.652 9.96267 314.844 9.536L315.932 10.064C315.772 10.3947 315.548 10.7253 315.26 11.056C314.982 11.3867 314.614 11.664 314.156 11.888C313.708 12.112 313.132 12.224 312.428 12.224ZM309.74 7.376H314.828C314.785 6.65067 314.534 6.08533 314.076 5.68C313.628 5.27467 313.052 5.072 312.348 5.072C311.633 5.072 311.046 5.27467 310.588 5.68C310.129 6.08533 309.846 6.65067 309.74 7.376ZM318.312 12V4.176H319.544V5.136H319.768C319.907 4.79467 320.12 4.544 320.408 4.384C320.696 4.224 321.075 4.144 321.544 4.144H322.472V5.296H321.464C320.899 5.296 320.44 5.456 320.088 5.776C319.747 6.08533 319.576 6.57067 319.576 7.232V12H318.312ZM327.339 12.224C326.369 12.224 325.547 12 324.875 11.552C324.214 11.104 323.814 10.3947 323.675 9.424L324.875 9.152C324.961 9.664 325.121 10.0693 325.355 10.368C325.59 10.656 325.878 10.864 326.219 10.992C326.571 11.1093 326.945 11.168 327.339 11.168C327.926 11.168 328.39 11.0507 328.731 10.816C329.073 10.5813 329.243 10.2667 329.243 9.872C329.243 9.46667 329.078 9.184 328.747 9.024C328.427 8.85333 327.985 8.71467 327.419 8.608L326.763 8.496C326.262 8.41067 325.803 8.27733 325.387 8.096C324.971 7.91467 324.641 7.66933 324.395 7.36C324.15 7.05067 324.027 6.66133 324.027 6.192C324.027 5.488 324.299 4.93867 324.843 4.544C325.387 4.14933 326.107 3.952 327.003 3.952C327.889 3.952 328.603 4.15467 329.147 4.56C329.702 4.95467 330.059 5.51467 330.219 6.24L329.035 6.544C328.939 5.97867 328.71 5.584 328.347 5.36C327.985 5.12533 327.537 5.008 327.003 5.008C326.47 5.008 326.049 5.10933 325.739 5.312C325.43 5.504 325.275 5.792 325.275 6.176C325.275 6.54933 325.419 6.82667 325.707 7.008C326.006 7.17867 326.401 7.30667 326.891 7.392L327.547 7.504C328.102 7.6 328.598 7.73333 329.035 7.904C329.483 8.064 329.835 8.29867 330.091 8.608C330.358 8.91733 330.491 9.32267 330.491 9.824C330.491 10.592 330.203 11.184 329.627 11.6C329.062 12.016 328.299 12.224 327.339 12.224ZM336.734 12V4.176H337.998V12H336.734ZM337.374 2.96C337.097 2.96 336.862 2.86933 336.67 2.688C336.489 2.50667 336.398 2.27733 336.398 2C336.398 1.712 336.489 1.47733 336.67 1.296C336.862 1.11467 337.097 1.024 337.374 1.024C337.652 1.024 337.881 1.11467 338.062 1.296C338.244 1.47733 338.334 1.712 338.334 2C338.334 2.27733 338.244 2.50667 338.062 2.688C337.881 2.86933 337.652 2.96 337.374 2.96ZM340.656 12V4.176H341.888V5.504H342.112C342.283 5.13067 342.571 4.79467 342.976 4.496C343.392 4.18667 344 4.032 344.8 4.032C345.387 4.032 345.909 4.15467 346.368 4.4C346.837 4.64533 347.211 5.008 347.488 5.488C347.765 5.968 347.904 6.56 347.904 7.264V12H346.64V7.36C346.64 6.58133 346.443 6.016 346.048 5.664C345.664 5.312 345.141 5.136 344.48 5.136C343.723 5.136 343.104 5.38133 342.624 5.872C342.155 6.36267 341.92 7.09333 341.92 8.064V12H340.656ZM357.458 12C357.01 12 356.663 11.8773 356.418 11.632C356.183 11.3867 356.066 11.0507 356.066 10.624V5.28H353.714V4.176H356.066V1.392H357.33V4.176H359.89V5.28H357.33V10.432C357.33 10.752 357.485 10.912 357.794 10.912H359.538V12H357.458ZM361.937 12V0.799999H363.201V5.424H363.425C363.532 5.18933 363.692 4.97067 363.905 4.768C364.129 4.55467 364.412 4.37867 364.753 4.24C365.105 4.10133 365.548 4.032 366.081 4.032C366.668 4.032 367.191 4.16 367.649 4.416C368.119 4.66133 368.492 5.024 368.769 5.504C369.047 5.97333 369.185 6.56 369.185 7.264V12H367.921V7.36C367.921 6.58133 367.724 6.016 367.329 5.664C366.945 5.312 366.423 5.136 365.761 5.136C365.004 5.136 364.385 5.38133 363.905 5.872C363.436 6.36267 363.201 7.09333 363.201 8.064V12H361.937ZM375.334 12.224C374.545 12.224 373.851 12.0587 373.254 11.728C372.657 11.3867 372.193 10.912 371.862 10.304C371.531 9.696 371.366 8.992 371.366 8.192V8C371.366 7.18933 371.531 6.48 371.862 5.872C372.193 5.264 372.651 4.79467 373.238 4.464C373.825 4.12267 374.497 3.952 375.254 3.952C375.99 3.952 376.641 4.112 377.206 4.432C377.771 4.74133 378.214 5.18933 378.534 5.776C378.854 6.36267 379.014 7.05067 379.014 7.84V8.416H372.63C372.662 9.25867 372.934 9.92 373.446 10.4C373.958 10.8693 374.598 11.104 375.366 11.104C376.038 11.104 376.555 10.9493 376.918 10.64C377.281 10.3307 377.558 9.96267 377.75 9.536L378.838 10.064C378.678 10.3947 378.454 10.7253 378.166 11.056C377.889 11.3867 377.521 11.664 377.062 11.888C376.614 12.112 376.038 12.224 375.334 12.224ZM372.646 7.376H377.734C377.691 6.65067 377.441 6.08533 376.982 5.68C376.534 5.27467 375.958 5.072 375.254 5.072C374.539 5.072 373.953 5.27467 373.494 5.68C373.035 6.08533 372.753 6.65067 372.646 7.376ZM386.416 12L384.848 4.176H386.128L387.424 11.152H387.648L389.36 4.176H391.456L393.168 11.152H393.392L394.688 4.176H395.968L394.4 12H392.24L390.512 5.024H390.304L388.576 12H386.416ZM401.6 12.224C400.811 12.224 400.112 12.0587 399.504 11.728C398.907 11.3973 398.438 10.9333 398.096 10.336C397.766 9.728 397.6 9.01333 397.6 8.192V7.984C397.6 7.17333 397.766 6.464 398.096 5.856C398.438 5.248 398.907 4.77867 399.504 4.448C400.112 4.11733 400.811 3.952 401.6 3.952C402.39 3.952 403.083 4.11733 403.68 4.448C404.288 4.77867 404.758 5.248 405.088 5.856C405.43 6.464 405.6 7.17333 405.6 7.984V8.192C405.6 9.01333 405.43 9.728 405.088 10.336C404.758 10.9333 404.288 11.3973 403.68 11.728C403.083 12.0587 402.39 12.224 401.6 12.224ZM401.6 11.088C402.432 11.088 403.094 10.8267 403.584 10.304C404.086 9.77067 404.336 9.056 404.336 8.16V8.016C404.336 7.12 404.086 6.41067 403.584 5.888C403.094 5.35467 402.432 5.088 401.6 5.088C400.779 5.088 400.118 5.35467 399.616 5.888C399.115 6.41067 398.864 7.12 398.864 8.016V8.16C398.864 9.056 399.115 9.77067 399.616 10.304C400.118 10.8267 400.779 11.088 401.6 11.088ZM407.875 12V4.176H409.107V5.136H409.331C409.47 4.79467 409.683 4.544 409.971 4.384C410.259 4.224 410.638 4.144 411.107 4.144H412.035V5.296H411.027C410.462 5.296 410.003 5.456 409.651 5.776C409.31 6.08533 409.139 6.57067 409.139 7.232V12H407.875ZM413.906 12V0.799999H415.17V12H413.906ZM421.14 12.224C420.468 12.224 419.849 12.064 419.284 11.744C418.719 11.424 418.271 10.96 417.94 10.352C417.609 9.744 417.444 9.024 417.444 8.192V7.984C417.444 7.152 417.609 6.43733 417.94 5.84C418.271 5.232 418.713 4.768 419.268 4.448C419.833 4.11733 420.457 3.952 421.14 3.952C421.684 3.952 422.143 4.02667 422.516 4.176C422.9 4.31467 423.209 4.496 423.444 4.72C423.679 4.93333 423.86 5.16267 423.988 5.408H424.212V0.799999H425.476V12H424.244V10.704H424.02C423.807 11.0987 423.476 11.4507 423.028 11.76C422.58 12.0693 421.951 12.224 421.14 12.224ZM421.476 11.104C422.287 11.104 422.943 10.848 423.444 10.336C423.956 9.81333 424.212 9.088 424.212 8.16V8.016C424.212 7.088 423.956 6.368 423.444 5.856C422.943 5.33333 422.287 5.072 421.476 5.072C420.676 5.072 420.015 5.33333 419.492 5.856C418.98 6.368 418.724 7.088 418.724 8.016V8.16C418.724 9.088 418.98 9.81333 419.492 10.336C420.015 10.848 420.676 11.104 421.476 11.104ZM427.997 14V13.2H428.461C428.845 13.2 429.037 13.008 429.037 12.624V12.112H428.813C428.504 12.112 428.242 12.016 428.029 11.824C427.826 11.632 427.725 11.392 427.725 11.104C427.725 10.7947 427.826 10.544 428.029 10.352C428.242 10.16 428.504 10.064 428.813 10.064C429.122 10.064 429.378 10.1653 429.581 10.368C429.784 10.5707 429.885 10.8267 429.885 11.136V12.624C429.885 13.5413 429.426 14 428.509 14H427.997ZM435.143 12V10.8H436.711V2H435.143V0.799999H440.759C441.409 0.799999 441.985 0.917333 442.487 1.152C442.999 1.38667 443.393 1.71733 443.671 2.144C443.959 2.56 444.103 3.05067 444.103 3.616V3.744C444.103 4.26667 444.001 4.69867 443.799 5.04C443.596 5.37067 443.356 5.632 443.079 5.824C442.801 6.00533 442.529 6.13867 442.263 6.224V6.448C442.529 6.512 442.807 6.64 443.095 6.832C443.383 7.01333 443.623 7.27467 443.815 7.616C444.017 7.95733 444.119 8.38933 444.119 8.912V9.072C444.119 9.68 443.969 10.208 443.671 10.656C443.383 11.0933 442.983 11.4293 442.471 11.664C441.969 11.888 441.393 12 440.743 12H435.143ZM438.055 10.784H440.599C441.303 10.784 441.841 10.6187 442.215 10.288C442.588 9.95733 442.775 9.50933 442.775 8.944V8.8C442.775 8.23467 442.588 7.78667 442.215 7.456C441.841 7.12533 441.303 6.96 440.599 6.96H438.055V10.784ZM438.055 5.744H440.647C441.287 5.744 441.799 5.584 442.183 5.264C442.567 4.93333 442.759 4.50133 442.759 3.968V3.808C442.759 3.264 442.567 2.832 442.183 2.512C441.809 2.18133 441.297 2.016 440.647 2.016H438.055V5.744ZM448.697 12.224C448.153 12.224 447.657 12.128 447.209 11.936C446.761 11.744 446.409 11.4667 446.153 11.104C445.897 10.7413 445.769 10.2987 445.769 9.776C445.769 9.24267 445.897 8.80533 446.153 8.464C446.409 8.112 446.761 7.85067 447.209 7.68C447.657 7.49867 448.158 7.408 448.713 7.408H451.353V6.832C451.353 6.27733 451.187 5.84 450.857 5.52C450.537 5.2 450.057 5.04 449.417 5.04C448.787 5.04 448.297 5.19467 447.945 5.504C447.593 5.80267 447.353 6.208 447.225 6.72L446.041 6.336C446.169 5.89867 446.371 5.504 446.649 5.152C446.926 4.78933 447.294 4.50133 447.753 4.288C448.222 4.064 448.782 3.952 449.433 3.952C450.435 3.952 451.214 4.21333 451.769 4.736C452.323 5.248 452.601 5.97333 452.601 6.912V10.448C452.601 10.768 452.75 10.928 453.049 10.928H453.769V12H452.665C452.313 12 452.03 11.904 451.817 11.712C451.603 11.5093 451.497 11.2427 451.497 10.912V10.832H451.305C451.187 11.0347 451.027 11.248 450.825 11.472C450.633 11.6853 450.366 11.8613 450.025 12C449.683 12.1493 449.241 12.224 448.697 12.224ZM448.841 11.136C449.587 11.136 450.19 10.9173 450.649 10.48C451.118 10.032 451.353 9.408 451.353 8.608V8.432H448.761C448.259 8.432 447.843 8.544 447.513 8.768C447.193 8.98133 447.033 9.30667 447.033 9.744C447.033 10.1813 447.198 10.5227 447.529 10.768C447.87 11.0133 448.307 11.136 448.841 11.136ZM457.864 12C457.416 12 457.07 11.8773 456.824 11.632C456.59 11.3867 456.472 11.0507 456.472 10.624V5.28H454.12V4.176H456.472V1.392H457.736V4.176H460.296V5.28H457.736V10.432C457.736 10.752 457.891 10.912 458.2 10.912H459.944V12H457.864ZM462.344 12V4.176H463.576V5.152H463.8C463.949 4.87467 464.194 4.61867 464.536 4.384C464.877 4.14933 465.357 4.032 465.976 4.032C466.584 4.032 467.074 4.16533 467.448 4.432C467.832 4.69867 468.109 5.024 468.28 5.408H468.504C468.685 5.024 468.957 4.69867 469.32 4.432C469.693 4.16533 470.21 4.032 470.872 4.032C471.394 4.032 471.853 4.13867 472.248 4.352C472.642 4.56533 472.952 4.87467 473.176 5.28C473.41 5.67467 473.528 6.14933 473.528 6.704V12H472.264V6.816C472.264 6.29333 472.109 5.88267 471.8 5.584C471.501 5.27467 471.08 5.12 470.536 5.12C469.96 5.12 469.485 5.30667 469.112 5.68C468.749 6.05333 468.568 6.592 468.568 7.296V12H467.304V6.816C467.304 6.29333 467.149 5.88267 466.84 5.584C466.541 5.27467 466.12 5.12 465.576 5.12C465 5.12 464.525 5.30667 464.152 5.68C463.789 6.05333 463.608 6.592 463.608 7.296V12H462.344ZM478.509 12.224C477.965 12.224 477.469 12.128 477.021 11.936C476.573 11.744 476.221 11.4667 475.965 11.104C475.709 10.7413 475.581 10.2987 475.581 9.776C475.581 9.24267 475.709 8.80533 475.965 8.464C476.221 8.112 476.573 7.85067 477.021 7.68C477.469 7.49867 477.971 7.408 478.525 7.408H481.165V6.832C481.165 6.27733 481 5.84 480.669 5.52C480.349 5.2 479.869 5.04 479.229 5.04C478.6 5.04 478.109 5.19467 477.757 5.504C477.405 5.80267 477.165 6.208 477.037 6.72L475.853 6.336C475.981 5.89867 476.184 5.504 476.461 5.152C476.739 4.78933 477.107 4.50133 477.565 4.288C478.035 4.064 478.595 3.952 479.245 3.952C480.248 3.952 481.027 4.21333 481.581 4.736C482.136 5.248 482.413 5.97333 482.413 6.912V10.448C482.413 10.768 482.563 10.928 482.861 10.928H483.581V12H482.477C482.125 12 481.843 11.904 481.629 11.712C481.416 11.5093 481.309 11.2427 481.309 10.912V10.832H481.117C481 11.0347 480.84 11.248 480.637 11.472C480.445 11.6853 480.179 11.8613 479.837 12C479.496 12.1493 479.053 12.224 478.509 12.224ZM478.653 11.136C479.4 11.136 480.003 10.9173 480.461 10.48C480.931 10.032 481.165 9.408 481.165 8.608V8.432H478.573C478.072 8.432 477.656 8.544 477.325 8.768C477.005 8.98133 476.845 9.30667 476.845 9.744C476.845 10.1813 477.011 10.5227 477.341 10.768C477.683 11.0133 478.12 11.136 478.653 11.136ZM485.312 12V4.176H486.544V5.504H486.768C486.939 5.13067 487.227 4.79467 487.632 4.496C488.048 4.18667 488.656 4.032 489.456 4.032C490.043 4.032 490.566 4.15467 491.024 4.4C491.494 4.64533 491.867 5.008 492.144 5.488C492.422 5.968 492.56 6.56 492.56 7.264V12H491.296V7.36C491.296 6.58133 491.099 6.016 490.704 5.664C490.32 5.312 489.798 5.136 489.136 5.136C488.379 5.136 487.76 5.38133 487.28 5.872C486.811 6.36267 486.576 7.09333 486.576 8.064V12H485.312ZM499.234 12V0.799999H500.498V5.424H500.722C500.829 5.18933 500.989 4.97067 501.202 4.768C501.426 4.55467 501.709 4.37867 502.05 4.24C502.402 4.10133 502.845 4.032 503.378 4.032C503.965 4.032 504.488 4.16 504.946 4.416C505.416 4.66133 505.789 5.024 506.066 5.504C506.344 5.97333 506.482 6.56 506.482 7.264V12H505.218V7.36C505.218 6.58133 505.021 6.016 504.626 5.664C504.242 5.312 503.72 5.136 503.058 5.136C502.301 5.136 501.682 5.38133 501.202 5.872C500.733 6.36267 500.498 7.09333 500.498 8.064V12H499.234ZM511.447 12.224C510.903 12.224 510.407 12.128 509.959 11.936C509.511 11.744 509.159 11.4667 508.903 11.104C508.647 10.7413 508.519 10.2987 508.519 9.776C508.519 9.24267 508.647 8.80533 508.903 8.464C509.159 8.112 509.511 7.85067 509.959 7.68C510.407 7.49867 510.908 7.408 511.463 7.408H514.103V6.832C514.103 6.27733 513.937 5.84 513.607 5.52C513.287 5.2 512.807 5.04 512.167 5.04C511.537 5.04 511.047 5.19467 510.695 5.504C510.343 5.80267 510.103 6.208 509.975 6.72L508.791 6.336C508.919 5.89867 509.121 5.504 509.399 5.152C509.676 4.78933 510.044 4.50133 510.503 4.288C510.972 4.064 511.532 3.952 512.183 3.952C513.185 3.952 513.964 4.21333 514.519 4.736C515.073 5.248 515.351 5.97333 515.351 6.912V10.448C515.351 10.768 515.5 10.928 515.799 10.928H516.519V12H515.415C515.063 12 514.78 11.904 514.567 11.712C514.353 11.5093 514.247 11.2427 514.247 10.912V10.832H514.055C513.937 11.0347 513.777 11.248 513.575 11.472C513.383 11.6853 513.116 11.8613 512.775 12C512.433 12.1493 511.991 12.224 511.447 12.224ZM511.591 11.136C512.337 11.136 512.94 10.9173 513.399 10.48C513.868 10.032 514.103 9.408 514.103 8.608V8.432H511.511C511.009 8.432 510.593 8.544 510.263 8.768C509.943 8.98133 509.783 9.30667 509.783 9.744C509.783 10.1813 509.948 10.5227 510.279 10.768C510.62 11.0133 511.057 11.136 511.591 11.136ZM521.339 12.224C520.369 12.224 519.547 12 518.875 11.552C518.214 11.104 517.814 10.3947 517.675 9.424L518.875 9.152C518.961 9.664 519.121 10.0693 519.355 10.368C519.59 10.656 519.878 10.864 520.219 10.992C520.571 11.1093 520.945 11.168 521.339 11.168C521.926 11.168 522.39 11.0507 522.731 10.816C523.073 10.5813 523.243 10.2667 523.243 9.872C523.243 9.46667 523.078 9.184 522.747 9.024C522.427 8.85333 521.985 8.71467 521.419 8.608L520.763 8.496C520.262 8.41067 519.803 8.27733 519.387 8.096C518.971 7.91467 518.641 7.66933 518.395 7.36C518.15 7.05067 518.027 6.66133 518.027 6.192C518.027 5.488 518.299 4.93867 518.843 4.544C519.387 4.14933 520.107 3.952 521.003 3.952C521.889 3.952 522.603 4.15467 523.147 4.56C523.702 4.95467 524.059 5.51467 524.219 6.24L523.035 6.544C522.939 5.97867 522.71 5.584 522.347 5.36C521.985 5.12533 521.537 5.008 521.003 5.008C520.47 5.008 520.049 5.10933 519.739 5.312C519.43 5.504 519.275 5.792 519.275 6.176C519.275 6.54933 519.419 6.82667 519.707 7.008C520.006 7.17867 520.401 7.30667 520.891 7.392L521.547 7.504C522.102 7.6 522.598 7.73333 523.035 7.904C523.483 8.064 523.835 8.29867 524.091 8.608C524.358 8.91733 524.491 9.32267 524.491 9.824C524.491 10.592 524.203 11.184 523.627 11.6C523.062 12.016 522.299 12.224 521.339 12.224ZM4.64 38.224C3.968 38.224 3.34933 38.064 2.784 37.744C2.21867 37.424 1.77067 36.96 1.44 36.352C1.10933 35.744 0.944 35.024 0.944 34.192V33.984C0.944 33.152 1.10933 32.4373 1.44 31.84C1.77067 31.232 2.21333 30.768 2.768 30.448C3.33333 30.1173 3.95733 29.952 4.64 29.952C5.184 29.952 5.64267 30.0267 6.016 30.176C6.4 30.3147 6.70933 30.496 6.944 30.72C7.17867 30.9333 7.36 31.1627 7.488 31.408H7.712V26.8H8.976V38H7.744V36.704H7.52C7.30667 37.0987 6.976 37.4507 6.528 37.76C6.08 38.0693 5.45067 38.224 4.64 38.224ZM4.976 37.104C5.78667 37.104 6.44267 36.848 6.944 36.336C7.456 35.8133 7.712 35.088 7.712 34.16V34.016C7.712 33.088 7.456 32.368 6.944 31.856C6.44267 31.3333 5.78667 31.072 4.976 31.072C4.176 31.072 3.51467 31.3333 2.992 31.856C2.48 32.368 2.224 33.088 2.224 34.016V34.16C2.224 35.088 2.48 35.8133 2.992 36.336C3.51467 36.848 4.176 37.104 4.976 37.104ZM15.2089 38.224C14.4195 38.224 13.7262 38.0587 13.1289 37.728C12.5315 37.3867 12.0675 36.912 11.7369 36.304C11.4062 35.696 11.2409 34.992 11.2409 34.192V34C11.2409 33.1893 11.4062 32.48 11.7369 31.872C12.0675 31.264 12.5262 30.7947 13.1129 30.464C13.6995 30.1227 14.3715 29.952 15.1289 29.952C15.8649 29.952 16.5155 30.112 17.0809 30.432C17.6462 30.7413 18.0889 31.1893 18.4089 31.776C18.7289 32.3627 18.8889 33.0507 18.8889 33.84V34.416H12.5049C12.5369 35.2587 12.8089 35.92 13.3209 36.4C13.8329 36.8693 14.4729 37.104 15.2409 37.104C15.9129 37.104 16.4302 36.9493 16.7929 36.64C17.1555 36.3307 17.4329 35.9627 17.6249 35.536L18.7129 36.064C18.5529 36.3947 18.3289 36.7253 18.0409 37.056C17.7635 37.3867 17.3955 37.664 16.9369 37.888C16.4889 38.112 15.9129 38.224 15.2089 38.224ZM12.5209 33.376H17.6089C17.5662 32.6507 17.3155 32.0853 16.8569 31.68C16.4089 31.2747 15.8329 31.072 15.1289 31.072C14.4142 31.072 13.8275 31.2747 13.3689 31.68C12.9102 32.0853 12.6275 32.6507 12.5209 33.376ZM24.4056 38.224C23.7336 38.224 23.115 38.064 22.5496 37.744C21.9843 37.424 21.5363 36.96 21.2056 36.352C20.875 35.744 20.7096 35.024 20.7096 34.192V33.984C20.7096 33.152 20.875 32.4373 21.2056 31.84C21.5363 31.232 21.979 30.768 22.5336 30.448C23.099 30.1173 23.723 29.952 24.4056 29.952C24.9496 29.952 25.4083 30.0267 25.7816 30.176C26.1656 30.3147 26.475 30.496 26.7096 30.72C26.9443 30.9333 27.1256 31.1627 27.2536 31.408H27.4776V26.8H28.7416V38H27.5096V36.704H27.2856C27.0723 37.0987 26.7416 37.4507 26.2936 37.76C25.8456 38.0693 25.2163 38.224 24.4056 38.224ZM24.7416 37.104C25.5523 37.104 26.2083 36.848 26.7096 36.336C27.2216 35.8133 27.4776 35.088 27.4776 34.16V34.016C27.4776 33.088 27.2216 32.368 26.7096 31.856C26.2083 31.3333 25.5523 31.072 24.7416 31.072C23.9416 31.072 23.2803 31.3333 22.7576 31.856C22.2456 32.368 21.9896 33.088 21.9896 34.016V34.16C21.9896 35.088 22.2456 35.8133 22.7576 36.336C23.2803 36.848 23.9416 37.104 24.7416 37.104ZM31.3905 38V30.176H32.6545V38H31.3905ZM32.0305 28.96C31.7532 28.96 31.5185 28.8693 31.3265 28.688C31.1452 28.5067 31.0545 28.2773 31.0545 28C31.0545 27.712 31.1452 27.4773 31.3265 27.296C31.5185 27.1147 31.7532 27.024 32.0305 27.024C32.3078 27.024 32.5372 27.1147 32.7185 27.296C32.8998 27.4773 32.9905 27.712 32.9905 28C32.9905 28.2773 32.8998 28.5067 32.7185 28.688C32.5372 28.8693 32.3078 28.96 32.0305 28.96ZM38.9124 38.224C38.155 38.224 37.4724 38.064 36.8644 37.744C36.267 37.4133 35.7924 36.944 35.4404 36.336C35.099 35.728 34.9284 35.008 34.9284 34.176V34C34.9284 33.1573 35.099 32.4373 35.4404 31.84C35.7924 31.232 36.267 30.768 36.8644 30.448C37.4724 30.1173 38.155 29.952 38.9124 29.952C39.659 29.952 40.2937 30.0907 40.8164 30.368C41.3497 30.6453 41.7657 31.0133 42.0644 31.472C42.3737 31.9307 42.571 32.4213 42.6564 32.944L41.4244 33.2C41.371 32.816 41.243 32.464 41.0404 32.144C40.8484 31.824 40.5764 31.568 40.2244 31.376C39.8724 31.184 39.4404 31.088 38.9284 31.088C38.4057 31.088 37.9364 31.2053 37.5204 31.44C37.115 31.6747 36.7897 32.0107 36.5444 32.448C36.3097 32.8853 36.1924 33.408 36.1924 34.016V34.16C36.1924 34.768 36.3097 35.2907 36.5444 35.728C36.7897 36.1653 37.115 36.5013 37.5204 36.736C37.9364 36.9707 38.4057 37.088 38.9284 37.088C39.707 37.088 40.299 36.8853 40.7044 36.48C41.1204 36.0747 41.3764 35.5733 41.4724 34.976L42.7204 35.248C42.603 35.76 42.3897 36.2453 42.0804 36.704C41.771 37.1627 41.3497 37.5307 40.8164 37.808C40.2937 38.0853 39.659 38.224 38.9124 38.224ZM47.2749 38.224C46.7309 38.224 46.2349 38.128 45.7869 37.936C45.3389 37.744 44.9869 37.4667 44.7309 37.104C44.4749 36.7413 44.3469 36.2987 44.3469 35.776C44.3469 35.2427 44.4749 34.8053 44.7309 34.464C44.9869 34.112 45.3389 33.8507 45.7869 33.68C46.2349 33.4987 46.7362 33.408 47.2909 33.408H49.9309V32.832C49.9309 32.2773 49.7655 31.84 49.4349 31.52C49.1149 31.2 48.6349 31.04 47.9949 31.04C47.3655 31.04 46.8749 31.1947 46.5229 31.504C46.1709 31.8027 45.9309 32.208 45.8029 32.72L44.6189 32.336C44.7469 31.8987 44.9495 31.504 45.2269 31.152C45.5042 30.7893 45.8722 30.5013 46.3309 30.288C46.8002 30.064 47.3602 29.952 48.0109 29.952C49.0135 29.952 49.7922 30.2133 50.3469 30.736C50.9015 31.248 51.1789 31.9733 51.1789 32.912V36.448C51.1789 36.768 51.3282 36.928 51.6269 36.928H52.3469V38H51.2429C50.8909 38 50.6082 37.904 50.3949 37.712C50.1815 37.5093 50.0749 37.2427 50.0749 36.912V36.832H49.8829C49.7655 37.0347 49.6055 37.248 49.4029 37.472C49.2109 37.6853 48.9442 37.8613 48.6029 38C48.2615 38.1493 47.8189 38.224 47.2749 38.224ZM47.4189 37.136C48.1655 37.136 48.7682 36.9173 49.2269 36.48C49.6962 36.032 49.9309 35.408 49.9309 34.608V34.432H47.3389C46.8375 34.432 46.4215 34.544 46.0909 34.768C45.7709 34.9813 45.6109 35.3067 45.6109 35.744C45.6109 36.1813 45.7762 36.5227 46.1069 36.768C46.4482 37.0133 46.8855 37.136 47.4189 37.136ZM56.4424 38C55.9944 38 55.6477 37.8773 55.4024 37.632C55.1677 37.3867 55.0504 37.0507 55.0504 36.624V31.28H52.6984V30.176H55.0504V27.392H56.3144V30.176H58.8744V31.28H56.3144V36.432C56.3144 36.752 56.469 36.912 56.7784 36.912H58.5224V38H56.4424ZM64.2245 38.224C63.4352 38.224 62.7418 38.0587 62.1445 37.728C61.5472 37.3867 61.0832 36.912 60.7525 36.304C60.4218 35.696 60.2565 34.992 60.2565 34.192V34C60.2565 33.1893 60.4218 32.48 60.7525 31.872C61.0832 31.264 61.5418 30.7947 62.1285 30.464C62.7152 30.1227 63.3872 29.952 64.1445 29.952C64.8805 29.952 65.5312 30.112 66.0965 30.432C66.6618 30.7413 67.1045 31.1893 67.4245 31.776C67.7445 32.3627 67.9045 33.0507 67.9045 33.84V34.416H61.5205C61.5525 35.2587 61.8245 35.92 62.3365 36.4C62.8485 36.8693 63.4885 37.104 64.2565 37.104C64.9285 37.104 65.4458 36.9493 65.8085 36.64C66.1712 36.3307 66.4485 35.9627 66.6405 35.536L67.7285 36.064C67.5685 36.3947 67.3445 36.7253 67.0565 37.056C66.7792 37.3867 66.4112 37.664 65.9525 37.888C65.5045 38.112 64.9285 38.224 64.2245 38.224ZM61.5365 33.376H66.6245C66.5818 32.6507 66.3312 32.0853 65.8725 31.68C65.4245 31.2747 64.8485 31.072 64.1445 31.072C63.4298 31.072 62.8432 31.2747 62.3845 31.68C61.9258 32.0853 61.6432 32.6507 61.5365 33.376ZM73.4213 38.224C72.7493 38.224 72.1306 38.064 71.5653 37.744C70.9999 37.424 70.5519 36.96 70.2213 36.352C69.8906 35.744 69.7253 35.024 69.7253 34.192V33.984C69.7253 33.152 69.8906 32.4373 70.2213 31.84C70.5519 31.232 70.9946 30.768 71.5493 30.448C72.1146 30.1173 72.7386 29.952 73.4213 29.952C73.9653 29.952 74.4239 30.0267 74.7973 30.176C75.1813 30.3147 75.4906 30.496 75.7253 30.72C75.9599 30.9333 76.1413 31.1627 76.2693 31.408H76.4933V26.8H77.7573V38H76.5253V36.704H76.3013C76.0879 37.0987 75.7573 37.4507 75.3093 37.76C74.8613 38.0693 74.2319 38.224 73.4213 38.224ZM73.7573 37.104C74.5679 37.104 75.2239 36.848 75.7253 36.336C76.2373 35.8133 76.4933 35.088 76.4933 34.16V34.016C76.4933 33.088 76.2373 32.368 75.7253 31.856C75.2239 31.3333 74.5679 31.072 73.7573 31.072C72.9573 31.072 72.2959 31.3333 71.7733 31.856C71.2613 32.368 71.0053 33.088 71.0053 34.016V34.16C71.0053 35.088 71.2613 35.8133 71.7733 36.336C72.2959 36.848 72.9573 37.104 73.7573 37.104ZM84.5155 38V26.8H85.7795V31.424H86.0035C86.1102 31.1893 86.2702 30.9707 86.4835 30.768C86.7075 30.5547 86.9902 30.3787 87.3315 30.24C87.6835 30.1013 88.1262 30.032 88.6595 30.032C89.2462 30.032 89.7688 30.16 90.2275 30.416C90.6968 30.6613 91.0702 31.024 91.3475 31.504C91.6248 31.9733 91.7635 32.56 91.7635 33.264V38H90.4995V33.36C90.4995 32.5813 90.3022 32.016 89.9075 31.664C89.5235 31.312 89.0008 31.136 88.3395 31.136C87.5822 31.136 86.9635 31.3813 86.4835 31.872C86.0142 32.3627 85.7795 33.0933 85.7795 34.064V38H84.5155ZM94.328 38V30.176H95.592V38H94.328ZM94.968 28.96C94.6907 28.96 94.456 28.8693 94.264 28.688C94.0827 28.5067 93.992 28.2773 93.992 28C93.992 27.712 94.0827 27.4773 94.264 27.296C94.456 27.1147 94.6907 27.024 94.968 27.024C95.2453 27.024 95.4747 27.1147 95.656 27.296C95.8373 27.4773 95.928 27.712 95.928 28C95.928 28.2773 95.8373 28.5067 95.656 28.688C95.4747 28.8693 95.2453 28.96 94.968 28.96ZM101.402 38.224C100.431 38.224 99.6099 38 98.9379 37.552C98.2765 37.104 97.8765 36.3947 97.7379 35.424L98.9379 35.152C99.0232 35.664 99.1832 36.0693 99.4179 36.368C99.6525 36.656 99.9405 36.864 100.282 36.992C100.634 37.1093 101.007 37.168 101.402 37.168C101.989 37.168 102.453 37.0507 102.794 36.816C103.135 36.5813 103.306 36.2667 103.306 35.872C103.306 35.4667 103.141 35.184 102.81 35.024C102.49 34.8533 102.047 34.7147 101.482 34.608L100.826 34.496C100.325 34.4107 99.8659 34.2773 99.4499 34.096C99.0339 33.9147 98.7032 33.6693 98.4579 33.36C98.2125 33.0507 98.0899 32.6613 98.0899 32.192C98.0899 31.488 98.3619 30.9387 98.9059 30.544C99.4499 30.1493 100.17 29.952 101.066 29.952C101.951 29.952 102.666 30.1547 103.21 30.56C103.765 30.9547 104.122 31.5147 104.282 32.24L103.098 32.544C103.002 31.9787 102.773 31.584 102.41 31.36C102.047 31.1253 101.599 31.008 101.066 31.008C100.533 31.008 100.111 31.1093 99.8019 31.312C99.4925 31.504 99.3379 31.792 99.3379 32.176C99.3379 32.5493 99.4819 32.8267 99.7699 33.008C100.069 33.1787 100.463 33.3067 100.954 33.392L101.61 33.504C102.165 33.6 102.661 33.7333 103.098 33.904C103.546 34.064 103.898 34.2987 104.154 34.608C104.421 34.9173 104.554 35.3227 104.554 35.824C104.554 36.592 104.266 37.184 103.69 37.6C103.125 38.016 102.362 38.224 101.402 38.224ZM110.797 38V26.8H112.061V38H110.797ZM114.719 38V30.176H115.983V38H114.719ZM115.359 28.96C115.081 28.96 114.847 28.8693 114.655 28.688C114.473 28.5067 114.383 28.2773 114.383 28C114.383 27.712 114.473 27.4773 114.655 27.296C114.847 27.1147 115.081 27.024 115.359 27.024C115.636 27.024 115.865 27.1147 116.047 27.296C116.228 27.4773 116.319 27.712 116.319 28C116.319 28.2773 116.228 28.5067 116.047 28.688C115.865 28.8693 115.636 28.96 115.359 28.96ZM120.177 38V31.28H117.777V30.176H120.177V28.176C120.177 27.7493 120.294 27.4133 120.529 27.168C120.774 26.9227 121.121 26.8 121.569 26.8H123.537V27.888H121.921C121.601 27.888 121.441 28.048 121.441 28.368V30.176H123.905V31.28H121.441V38H120.177ZM128.912 38.224C128.123 38.224 127.429 38.0587 126.832 37.728C126.235 37.3867 125.771 36.912 125.44 36.304C125.109 35.696 124.944 34.992 124.944 34.192V34C124.944 33.1893 125.109 32.48 125.44 31.872C125.771 31.264 126.229 30.7947 126.816 30.464C127.403 30.1227 128.075 29.952 128.832 29.952C129.568 29.952 130.219 30.112 130.784 30.432C131.349 30.7413 131.792 31.1893 132.112 31.776C132.432 32.3627 132.592 33.0507 132.592 33.84V34.416H126.208C126.24 35.2587 126.512 35.92 127.024 36.4C127.536 36.8693 128.176 37.104 128.944 37.104C129.616 37.104 130.133 36.9493 130.496 36.64C130.859 36.3307 131.136 35.9627 131.328 35.536L132.416 36.064C132.256 36.3947 132.032 36.7253 131.744 37.056C131.467 37.3867 131.099 37.664 130.64 37.888C130.192 38.112 129.616 38.224 128.912 38.224ZM126.224 33.376H131.312C131.269 32.6507 131.019 32.0853 130.56 31.68C130.112 31.2747 129.536 31.072 128.832 31.072C128.117 31.072 127.531 31.2747 127.072 31.68C126.613 32.0853 126.331 32.6507 126.224 33.376ZM141.786 38C141.338 38 140.991 37.8773 140.746 37.632C140.511 37.3867 140.394 37.0507 140.394 36.624V31.28H138.042V30.176H140.394V27.392H141.658V30.176H144.218V31.28H141.658V36.432C141.658 36.752 141.813 36.912 142.122 36.912H143.866V38H141.786ZM149.6 38.224C148.811 38.224 148.112 38.0587 147.504 37.728C146.907 37.3973 146.438 36.9333 146.096 36.336C145.766 35.728 145.6 35.0133 145.6 34.192V33.984C145.6 33.1733 145.766 32.464 146.096 31.856C146.438 31.248 146.907 30.7787 147.504 30.448C148.112 30.1173 148.811 29.952 149.6 29.952C150.39 29.952 151.083 30.1173 151.68 30.448C152.288 30.7787 152.758 31.248 153.088 31.856C153.43 32.464 153.6 33.1733 153.6 33.984V34.192C153.6 35.0133 153.43 35.728 153.088 36.336C152.758 36.9333 152.288 37.3973 151.68 37.728C151.083 38.0587 150.39 38.224 149.6 38.224ZM149.6 37.088C150.432 37.088 151.094 36.8267 151.584 36.304C152.086 35.7707 152.336 35.056 152.336 34.16V34.016C152.336 33.12 152.086 32.4107 151.584 31.888C151.094 31.3547 150.432 31.088 149.6 31.088C148.779 31.088 148.118 31.3547 147.616 31.888C147.115 32.4107 146.864 33.12 146.864 34.016V34.16C146.864 35.056 147.115 35.7707 147.616 36.304C148.118 36.8267 148.779 37.088 149.6 37.088ZM162.384 38.224C161.84 38.224 161.344 38.128 160.896 37.936C160.448 37.744 160.096 37.4667 159.84 37.104C159.584 36.7413 159.456 36.2987 159.456 35.776C159.456 35.2427 159.584 34.8053 159.84 34.464C160.096 34.112 160.448 33.8507 160.896 33.68C161.344 33.4987 161.846 33.408 162.4 33.408H165.04V32.832C165.04 32.2773 164.875 31.84 164.544 31.52C164.224 31.2 163.744 31.04 163.104 31.04C162.475 31.04 161.984 31.1947 161.632 31.504C161.28 31.8027 161.04 32.208 160.912 32.72L159.728 32.336C159.856 31.8987 160.059 31.504 160.336 31.152C160.614 30.7893 160.982 30.5013 161.44 30.288C161.91 30.064 162.47 29.952 163.12 29.952C164.123 29.952 164.902 30.2133 165.456 30.736C166.011 31.248 166.288 31.9733 166.288 32.912V36.448C166.288 36.768 166.438 36.928 166.736 36.928H167.456V38H166.352C166 38 165.718 37.904 165.504 37.712C165.291 37.5093 165.184 37.2427 165.184 36.912V36.832H164.992C164.875 37.0347 164.715 37.248 164.512 37.472C164.32 37.6853 164.054 37.8613 163.712 38C163.371 38.1493 162.928 38.224 162.384 38.224ZM162.528 37.136C163.275 37.136 163.878 36.9173 164.336 36.48C164.806 36.032 165.04 35.408 165.04 34.608V34.432H162.448C161.947 34.432 161.531 34.544 161.2 34.768C160.88 34.9813 160.72 35.3067 160.72 35.744C160.72 36.1813 160.886 36.5227 161.216 36.768C161.558 37.0133 161.995 37.136 162.528 37.136ZM169.187 38V30.176H170.419V31.504H170.643C170.814 31.1307 171.102 30.7947 171.507 30.496C171.923 30.1867 172.531 30.032 173.331 30.032C173.918 30.032 174.441 30.1547 174.899 30.4C175.369 30.6453 175.742 31.008 176.019 31.488C176.297 31.968 176.435 32.56 176.435 33.264V38H175.171V33.36C175.171 32.5813 174.974 32.016 174.579 31.664C174.195 31.312 173.673 31.136 173.011 31.136C172.254 31.136 171.635 31.3813 171.155 31.872C170.686 32.3627 170.451 33.0933 170.451 34.064V38H169.187ZM186.693 38.224C185.904 38.224 185.211 38.0587 184.613 37.728C184.016 37.3867 183.552 36.912 183.221 36.304C182.891 35.696 182.725 34.992 182.725 34.192V34C182.725 33.1893 182.891 32.48 183.221 31.872C183.552 31.264 184.011 30.7947 184.597 30.464C185.184 30.1227 185.856 29.952 186.613 29.952C187.349 29.952 188 30.112 188.565 30.432C189.131 30.7413 189.573 31.1893 189.893 31.776C190.213 32.3627 190.373 33.0507 190.373 33.84V34.416H183.989C184.021 35.2587 184.293 35.92 184.805 36.4C185.317 36.8693 185.957 37.104 186.725 37.104C187.397 37.104 187.915 36.9493 188.277 36.64C188.64 36.3307 188.917 35.9627 189.109 35.536L190.197 36.064C190.037 36.3947 189.813 36.7253 189.525 37.056C189.248 37.3867 188.88 37.664 188.421 37.888C187.973 38.112 187.397 38.224 186.693 38.224ZM184.005 33.376H189.093C189.051 32.6507 188.8 32.0853 188.341 31.68C187.893 31.2747 187.317 31.072 186.613 31.072C185.899 31.072 185.312 31.2747 184.853 31.68C184.395 32.0853 184.112 32.6507 184.005 33.376ZM192.578 38V30.176H193.81V31.504H194.034C194.205 31.1307 194.493 30.7947 194.898 30.496C195.314 30.1867 195.922 30.032 196.722 30.032C197.309 30.032 197.831 30.1547 198.29 30.4C198.759 30.6453 199.133 31.008 199.41 31.488C199.687 31.968 199.826 32.56 199.826 33.264V38H198.562V33.36C198.562 32.5813 198.365 32.016 197.97 31.664C197.586 31.312 197.063 31.136 196.402 31.136C195.645 31.136 195.026 31.3813 194.546 31.872C194.077 32.3627 193.842 33.0933 193.842 34.064V38H192.578ZM205.703 38.224C205.031 38.224 204.412 38.064 203.847 37.744C203.281 37.424 202.833 36.96 202.503 36.352C202.172 35.744 202.007 35.024 202.007 34.192V33.984C202.007 33.152 202.172 32.4373 202.503 31.84C202.833 31.232 203.276 30.768 203.831 30.448C204.396 30.1173 205.02 29.952 205.703 29.952C206.247 29.952 206.705 30.0267 207.079 30.176C207.463 30.3147 207.772 30.496 208.007 30.72C208.241 30.9333 208.423 31.1627 208.551 31.408H208.775V26.8H210.039V38H208.807V36.704H208.583C208.369 37.0987 208.039 37.4507 207.591 37.76C207.143 38.0693 206.513 38.224 205.703 38.224ZM206.039 37.104C206.849 37.104 207.505 36.848 208.007 36.336C208.519 35.8133 208.775 35.088 208.775 34.16V34.016C208.775 33.088 208.519 32.368 208.007 31.856C207.505 31.3333 206.849 31.072 206.039 31.072C205.239 31.072 204.577 31.3333 204.055 31.856C203.543 32.368 203.287 33.088 203.287 34.016V34.16C203.287 35.088 203.543 35.8133 204.055 36.336C204.577 36.848 205.239 37.104 206.039 37.104ZM212.687 38V26.8H213.951V38H212.687ZM220.193 38.224C219.404 38.224 218.711 38.0587 218.113 37.728C217.516 37.3867 217.052 36.912 216.721 36.304C216.391 35.696 216.225 34.992 216.225 34.192V34C216.225 33.1893 216.391 32.48 216.721 31.872C217.052 31.264 217.511 30.7947 218.097 30.464C218.684 30.1227 219.356 29.952 220.113 29.952C220.849 29.952 221.5 30.112 222.065 30.432C222.631 30.7413 223.073 31.1893 223.393 31.776C223.713 32.3627 223.873 33.0507 223.873 33.84V34.416H217.489C217.521 35.2587 217.793 35.92 218.305 36.4C218.817 36.8693 219.457 37.104 220.225 37.104C220.897 37.104 221.415 36.9493 221.777 36.64C222.14 36.3307 222.417 35.9627 222.609 35.536L223.697 36.064C223.537 36.3947 223.313 36.7253 223.025 37.056C222.748 37.3867 222.38 37.664 221.921 37.888C221.473 38.112 220.897 38.224 220.193 38.224ZM217.505 33.376H222.593C222.551 32.6507 222.3 32.0853 221.841 31.68C221.393 31.2747 220.817 31.072 220.113 31.072C219.399 31.072 218.812 31.2747 218.353 31.68C217.895 32.0853 217.612 32.6507 217.505 33.376ZM229.23 38.224C228.259 38.224 227.438 38 226.766 37.552C226.105 37.104 225.705 36.3947 225.566 35.424L226.766 35.152C226.851 35.664 227.011 36.0693 227.246 36.368C227.481 36.656 227.769 36.864 228.11 36.992C228.462 37.1093 228.835 37.168 229.23 37.168C229.817 37.168 230.281 37.0507 230.622 36.816C230.963 36.5813 231.134 36.2667 231.134 35.872C231.134 35.4667 230.969 35.184 230.638 35.024C230.318 34.8533 229.875 34.7147 229.31 34.608L228.654 34.496C228.153 34.4107 227.694 34.2773 227.278 34.096C226.862 33.9147 226.531 33.6693 226.286 33.36C226.041 33.0507 225.918 32.6613 225.918 32.192C225.918 31.488 226.19 30.9387 226.734 30.544C227.278 30.1493 227.998 29.952 228.894 29.952C229.779 29.952 230.494 30.1547 231.038 30.56C231.593 30.9547 231.95 31.5147 232.11 32.24L230.926 32.544C230.83 31.9787 230.601 31.584 230.238 31.36C229.875 31.1253 229.427 31.008 228.894 31.008C228.361 31.008 227.939 31.1093 227.63 31.312C227.321 31.504 227.166 31.792 227.166 32.176C227.166 32.5493 227.31 32.8267 227.598 33.008C227.897 33.1787 228.291 33.3067 228.782 33.392L229.438 33.504C229.993 33.6 230.489 33.7333 230.926 33.904C231.374 34.064 231.726 34.2987 231.982 34.608C232.249 34.9173 232.382 35.3227 232.382 35.824C232.382 36.592 232.094 37.184 231.518 37.6C230.953 38.016 230.19 38.224 229.23 38.224ZM237.668 38.224C236.697 38.224 235.876 38 235.204 37.552C234.542 37.104 234.142 36.3947 234.004 35.424L235.204 35.152C235.289 35.664 235.449 36.0693 235.684 36.368C235.918 36.656 236.206 36.864 236.548 36.992C236.9 37.1093 237.273 37.168 237.668 37.168C238.254 37.168 238.718 37.0507 239.06 36.816C239.401 36.5813 239.572 36.2667 239.572 35.872C239.572 35.4667 239.406 35.184 239.076 35.024C238.756 34.8533 238.313 34.7147 237.748 34.608L237.092 34.496C236.59 34.4107 236.132 34.2773 235.716 34.096C235.3 33.9147 234.969 33.6693 234.724 33.36C234.478 33.0507 234.356 32.6613 234.356 32.192C234.356 31.488 234.628 30.9387 235.172 30.544C235.716 30.1493 236.436 29.952 237.332 29.952C238.217 29.952 238.932 30.1547 239.476 30.56C240.03 30.9547 240.388 31.5147 240.548 32.24L239.364 32.544C239.268 31.9787 239.038 31.584 238.676 31.36C238.313 31.1253 237.865 31.008 237.332 31.008C236.798 31.008 236.377 31.1093 236.068 31.312C235.758 31.504 235.604 31.792 235.604 32.176C235.604 32.5493 235.748 32.8267 236.036 33.008C236.334 33.1787 236.729 33.3067 237.22 33.392L237.876 33.504C238.43 33.6 238.926 33.7333 239.364 33.904C239.812 34.064 240.164 34.2987 240.42 34.608C240.686 34.9173 240.82 35.3227 240.82 35.824C240.82 36.592 240.532 37.184 239.956 37.6C239.39 38.016 238.628 38.224 237.668 38.224ZM250.662 38.224C249.905 38.224 249.222 38.064 248.614 37.744C248.017 37.4133 247.542 36.944 247.19 36.336C246.849 35.728 246.678 35.008 246.678 34.176V34C246.678 33.1573 246.849 32.4373 247.19 31.84C247.542 31.232 248.017 30.768 248.614 30.448C249.222 30.1173 249.905 29.952 250.662 29.952C251.409 29.952 252.044 30.0907 252.566 30.368C253.1 30.6453 253.516 31.0133 253.814 31.472C254.124 31.9307 254.321 32.4213 254.406 32.944L253.174 33.2C253.121 32.816 252.993 32.464 252.79 32.144C252.598 31.824 252.326 31.568 251.974 31.376C251.622 31.184 251.19 31.088 250.678 31.088C250.156 31.088 249.686 31.2053 249.27 31.44C248.865 31.6747 248.54 32.0107 248.294 32.448C248.06 32.8853 247.942 33.408 247.942 34.016V34.16C247.942 34.768 248.06 35.2907 248.294 35.728C248.54 36.1653 248.865 36.5013 249.27 36.736C249.686 36.9707 250.156 37.088 250.678 37.088C251.457 37.088 252.049 36.8853 252.454 36.48C252.87 36.0747 253.126 35.5733 253.222 34.976L254.47 35.248C254.353 35.76 254.14 36.2453 253.83 36.704C253.521 37.1627 253.1 37.5307 252.566 37.808C252.044 38.0853 251.409 38.224 250.662 38.224ZM256.625 38V30.176H257.857V31.136H258.081C258.22 30.7947 258.433 30.544 258.721 30.384C259.009 30.224 259.388 30.144 259.857 30.144H260.785V31.296H259.777C259.212 31.296 258.753 31.456 258.401 31.776C258.06 32.0853 257.889 32.5707 257.889 33.232V38H256.625ZM265.648 38.144C265.083 38.144 264.56 38.0213 264.08 37.776C263.611 37.5307 263.237 37.168 262.96 36.688C262.693 36.1973 262.56 35.6053 262.56 34.912V30.176H263.824V34.816C263.824 35.5947 264.016 36.16 264.4 36.512C264.795 36.864 265.323 37.04 265.984 37.04C266.731 37.04 267.344 36.7947 267.824 36.304C268.304 35.8133 268.544 35.0827 268.544 34.112V30.176H269.808V38H268.576V36.672H268.352C268.181 37.0453 267.888 37.3867 267.472 37.696C267.056 37.9947 266.448 38.144 265.648 38.144ZM275.605 38.224C274.634 38.224 273.813 38 273.141 37.552C272.48 37.104 272.08 36.3947 271.941 35.424L273.141 35.152C273.226 35.664 273.386 36.0693 273.621 36.368C273.856 36.656 274.144 36.864 274.485 36.992C274.837 37.1093 275.21 37.168 275.605 37.168C276.192 37.168 276.656 37.0507 276.997 36.816C277.338 36.5813 277.509 36.2667 277.509 35.872C277.509 35.4667 277.344 35.184 277.013 35.024C276.693 34.8533 276.25 34.7147 275.685 34.608L275.029 34.496C274.528 34.4107 274.069 34.2773 273.653 34.096C273.237 33.9147 272.906 33.6693 272.661 33.36C272.416 33.0507 272.293 32.6613 272.293 32.192C272.293 31.488 272.565 30.9387 273.109 30.544C273.653 30.1493 274.373 29.952 275.269 29.952C276.154 29.952 276.869 30.1547 277.413 30.56C277.968 30.9547 278.325 31.5147 278.485 32.24L277.301 32.544C277.205 31.9787 276.976 31.584 276.613 31.36C276.25 31.1253 275.802 31.008 275.269 31.008C274.736 31.008 274.314 31.1093 274.005 31.312C273.696 31.504 273.541 31.792 273.541 32.176C273.541 32.5493 273.685 32.8267 273.973 33.008C274.272 33.1787 274.666 33.3067 275.157 33.392L275.813 33.504C276.368 33.6 276.864 33.7333 277.301 33.904C277.749 34.064 278.101 34.2987 278.357 34.608C278.624 34.9173 278.757 35.3227 278.757 35.824C278.757 36.592 278.469 37.184 277.893 37.6C277.328 38.016 276.565 38.224 275.605 38.224ZM283.228 38.224C282.684 38.224 282.188 38.128 281.74 37.936C281.292 37.744 280.94 37.4667 280.684 37.104C280.428 36.7413 280.3 36.2987 280.3 35.776C280.3 35.2427 280.428 34.8053 280.684 34.464C280.94 34.112 281.292 33.8507 281.74 33.68C282.188 33.4987 282.689 33.408 283.244 33.408H285.884V32.832C285.884 32.2773 285.719 31.84 285.388 31.52C285.068 31.2 284.588 31.04 283.948 31.04C283.319 31.04 282.828 31.1947 282.476 31.504C282.124 31.8027 281.884 32.208 281.756 32.72L280.572 32.336C280.7 31.8987 280.903 31.504 281.18 31.152C281.457 30.7893 281.825 30.5013 282.284 30.288C282.753 30.064 283.313 29.952 283.964 29.952C284.967 29.952 285.745 30.2133 286.3 30.736C286.855 31.248 287.132 31.9733 287.132 32.912V36.448C287.132 36.768 287.281 36.928 287.58 36.928H288.3V38H287.196C286.844 38 286.561 37.904 286.348 37.712C286.135 37.5093 286.028 37.2427 286.028 36.912V36.832H285.836C285.719 37.0347 285.559 37.248 285.356 37.472C285.164 37.6853 284.897 37.8613 284.556 38C284.215 38.1493 283.772 38.224 283.228 38.224ZM283.372 37.136C284.119 37.136 284.721 36.9173 285.18 36.48C285.649 36.032 285.884 35.408 285.884 34.608V34.432H283.292C282.791 34.432 282.375 34.544 282.044 34.768C281.724 34.9813 281.564 35.3067 281.564 35.744C281.564 36.1813 281.729 36.5227 282.06 36.768C282.401 37.0133 282.839 37.136 283.372 37.136ZM293.124 38.224C292.452 38.224 291.834 38.064 291.268 37.744C290.703 37.424 290.255 36.96 289.924 36.352C289.594 35.744 289.428 35.024 289.428 34.192V33.984C289.428 33.152 289.594 32.4373 289.924 31.84C290.255 31.232 290.698 30.768 291.252 30.448C291.818 30.1173 292.442 29.952 293.124 29.952C293.668 29.952 294.127 30.0267 294.5 30.176C294.884 30.3147 295.194 30.496 295.428 30.72C295.663 30.9333 295.844 31.1627 295.972 31.408H296.196V26.8H297.46V38H296.228V36.704H296.004C295.791 37.0987 295.46 37.4507 295.012 37.76C294.564 38.0693 293.935 38.224 293.124 38.224ZM293.46 37.104C294.271 37.104 294.927 36.848 295.428 36.336C295.94 35.8133 296.196 35.088 296.196 34.16V34.016C296.196 33.088 295.94 32.368 295.428 31.856C294.927 31.3333 294.271 31.072 293.46 31.072C292.66 31.072 291.999 31.3333 291.476 31.856C290.964 32.368 290.708 33.088 290.708 34.016V34.16C290.708 35.088 290.964 35.8133 291.476 36.336C291.999 36.848 292.66 37.104 293.46 37.104ZM303.693 38.224C302.904 38.224 302.211 38.0587 301.613 37.728C301.016 37.3867 300.552 36.912 300.221 36.304C299.891 35.696 299.725 34.992 299.725 34.192V34C299.725 33.1893 299.891 32.48 300.221 31.872C300.552 31.264 301.011 30.7947 301.597 30.464C302.184 30.1227 302.856 29.952 303.613 29.952C304.349 29.952 305 30.112 305.565 30.432C306.131 30.7413 306.573 31.1893 306.893 31.776C307.213 32.3627 307.373 33.0507 307.373 33.84V34.416H300.989C301.021 35.2587 301.293 35.92 301.805 36.4C302.317 36.8693 302.957 37.104 303.725 37.104C304.397 37.104 304.915 36.9493 305.277 36.64C305.64 36.3307 305.917 35.9627 306.109 35.536L307.197 36.064C307.037 36.3947 306.813 36.7253 306.525 37.056C306.248 37.3867 305.88 37.664 305.421 37.888C304.973 38.112 304.397 38.224 303.693 38.224ZM301.005 33.376H306.093C306.051 32.6507 305.8 32.0853 305.341 31.68C304.893 31.2747 304.317 31.072 303.613 31.072C302.899 31.072 302.312 31.2747 301.853 31.68C301.395 32.0853 301.112 32.6507 301.005 33.376ZM313.415 38V26.8H318.279C318.983 26.8 319.597 26.9227 320.119 27.168C320.642 27.4133 321.047 27.76 321.335 28.208C321.623 28.656 321.767 29.184 321.767 29.792V29.984C321.767 30.656 321.607 31.2 321.287 31.616C320.967 32.032 320.573 32.336 320.103 32.528V32.816C320.53 32.8373 320.861 32.9867 321.095 33.264C321.33 33.5307 321.447 33.888 321.447 34.336V38H319.335V34.64C319.335 34.384 319.266 34.176 319.127 34.016C318.999 33.856 318.781 33.776 318.471 33.776H315.527V38H313.415ZM315.527 31.856H318.055C318.557 31.856 318.946 31.7227 319.223 31.456C319.511 31.1787 319.655 30.816 319.655 30.368V30.208C319.655 29.76 319.517 29.4027 319.239 29.136C318.962 28.8587 318.567 28.72 318.055 28.72H315.527V31.856ZM327.205 38.224C326.415 38.224 325.717 38.0587 325.109 37.728C324.511 37.3867 324.042 36.912 323.701 36.304C323.37 35.6853 323.205 34.96 323.205 34.128V33.936C323.205 33.104 323.37 32.384 323.701 31.776C324.031 31.1573 324.495 30.6827 325.093 30.352C325.69 30.0107 326.383 29.84 327.173 29.84C327.951 29.84 328.629 30.016 329.205 30.368C329.781 30.7093 330.229 31.1893 330.549 31.808C330.869 32.416 331.029 33.1253 331.029 33.936V34.624H325.253C325.274 35.168 325.477 35.6107 325.861 35.952C326.245 36.2933 326.714 36.464 327.269 36.464C327.834 36.464 328.25 36.3413 328.517 36.096C328.783 35.8507 328.986 35.5787 329.125 35.28L330.773 36.144C330.623 36.4213 330.405 36.7253 330.117 37.056C329.839 37.376 329.466 37.6533 328.997 37.888C328.527 38.112 327.93 38.224 327.205 38.224ZM325.269 33.12H328.981C328.938 32.6613 328.751 32.2933 328.421 32.016C328.101 31.7387 327.679 31.6 327.157 31.6C326.613 31.6 326.181 31.7387 325.861 32.016C325.541 32.2933 325.343 32.6613 325.269 33.12ZM335.287 38.224C334.722 38.224 334.215 38.128 333.767 37.936C333.319 37.7333 332.962 37.4453 332.695 37.072C332.439 36.688 332.311 36.224 332.311 35.68C332.311 35.136 332.439 34.6827 332.695 34.32C332.962 33.9467 333.324 33.6693 333.783 33.488C334.252 33.296 334.786 33.2 335.383 33.2H337.559V32.752C337.559 32.3787 337.442 32.0747 337.207 31.84C336.972 31.5947 336.599 31.472 336.087 31.472C335.586 31.472 335.212 31.5893 334.967 31.824C334.722 32.048 334.562 32.3413 334.487 32.704L332.631 32.08C332.759 31.6747 332.962 31.3067 333.239 30.976C333.527 30.6347 333.906 30.3627 334.375 30.16C334.855 29.9467 335.436 29.84 336.119 29.84C337.164 29.84 337.991 30.1013 338.599 30.624C339.207 31.1467 339.511 31.904 339.511 32.896V35.856C339.511 36.176 339.66 36.336 339.959 36.336H340.599V38H339.255C338.86 38 338.535 37.904 338.279 37.712C338.023 37.52 337.895 37.264 337.895 36.944V36.928H337.591C337.548 37.056 337.452 37.2267 337.303 37.44C337.154 37.6427 336.919 37.824 336.599 37.984C336.279 38.144 335.842 38.224 335.287 38.224ZM335.639 36.592C336.204 36.592 336.663 36.4373 337.015 36.128C337.378 35.808 337.559 35.3867 337.559 34.864V34.704H335.527C335.154 34.704 334.86 34.784 334.647 34.944C334.434 35.104 334.327 35.328 334.327 35.616C334.327 35.904 334.439 36.1387 334.663 36.32C334.887 36.5013 335.212 36.592 335.639 36.592ZM345.117 38.224C344.488 38.224 343.896 38.0693 343.341 37.76C342.797 37.44 342.36 36.976 342.029 36.368C341.698 35.76 341.533 35.024 341.533 34.16V33.904C341.533 33.04 341.698 32.304 342.029 31.696C342.36 31.088 342.797 30.6293 343.341 30.32C343.885 30 344.477 29.84 345.117 29.84C345.597 29.84 345.997 29.8987 346.317 30.016C346.648 30.1227 346.914 30.2613 347.117 30.432C347.32 30.6027 347.474 30.784 347.581 30.976H347.869V26.8H349.885V38H347.901V37.04H347.613C347.432 37.3387 347.149 37.6107 346.765 37.856C346.392 38.1013 345.842 38.224 345.117 38.224ZM345.725 36.464C346.344 36.464 346.861 36.2667 347.277 35.872C347.693 35.4667 347.901 34.88 347.901 34.112V33.952C347.901 33.184 347.693 32.6027 347.277 32.208C346.872 31.8027 346.354 31.6 345.725 31.6C345.106 31.6 344.589 31.8027 344.173 32.208C343.757 32.6027 343.549 33.184 343.549 33.952V34.112C343.549 34.88 343.757 35.4667 344.173 35.872C344.589 36.2667 345.106 36.464 345.725 36.464ZM356.118 38V26.8H360.039L361.975 36.56H362.263L364.199 26.8H368.119V38H366.071V28.352H365.783L363.863 38H360.375L358.455 28.352H358.167V38H356.118ZM374.068 38.224C373.279 38.224 372.569 38.064 371.94 37.744C371.311 37.424 370.815 36.96 370.452 36.352C370.089 35.744 369.908 35.0133 369.908 34.16V33.904C369.908 33.0507 370.089 32.32 370.452 31.712C370.815 31.104 371.311 30.64 371.94 30.32C372.569 30 373.279 29.84 374.068 29.84C374.857 29.84 375.567 30 376.196 30.32C376.825 30.64 377.321 31.104 377.684 31.712C378.047 32.32 378.228 33.0507 378.228 33.904V34.16C378.228 35.0133 378.047 35.744 377.684 36.352C377.321 36.96 376.825 37.424 376.196 37.744C375.567 38.064 374.857 38.224 374.068 38.224ZM374.068 36.432C374.687 36.432 375.199 36.2347 375.604 35.84C376.009 35.4347 376.212 34.8587 376.212 34.112V33.952C376.212 33.2053 376.009 32.6347 375.604 32.24C375.209 31.8347 374.697 31.632 374.068 31.632C373.449 31.632 372.937 31.8347 372.532 32.24C372.127 32.6347 371.924 33.2053 371.924 33.952V34.112C371.924 34.8587 372.127 35.4347 372.532 35.84C372.937 36.2347 373.449 36.432 374.068 36.432ZM380.089 38V30.064H382.073V30.96H382.361C382.478 30.64 382.67 30.4053 382.937 30.256C383.214 30.1067 383.534 30.032 383.897 30.032H384.857V31.824H383.865C383.353 31.824 382.931 31.9627 382.601 32.24C382.27 32.5067 382.105 32.9227 382.105 33.488V38H380.089ZM389.767 38.224C388.978 38.224 388.279 38.0587 387.671 37.728C387.074 37.3867 386.605 36.912 386.263 36.304C385.933 35.6853 385.767 34.96 385.767 34.128V33.936C385.767 33.104 385.933 32.384 386.263 31.776C386.594 31.1573 387.058 30.6827 387.655 30.352C388.253 30.0107 388.946 29.84 389.735 29.84C390.514 29.84 391.191 30.016 391.767 30.368C392.343 30.7093 392.791 31.1893 393.111 31.808C393.431 32.416 393.591 33.1253 393.591 33.936V34.624H387.815C387.837 35.168 388.039 35.6107 388.423 35.952C388.807 36.2933 389.277 36.464 389.831 36.464C390.397 36.464 390.813 36.3413 391.079 36.096C391.346 35.8507 391.549 35.5787 391.687 35.28L393.335 36.144C393.186 36.4213 392.967 36.7253 392.679 37.056C392.402 37.376 392.029 37.6533 391.559 37.888C391.09 38.112 390.493 38.224 389.767 38.224ZM387.831 33.12H391.543C391.501 32.6613 391.314 32.2933 390.983 32.016C390.663 31.7387 390.242 31.6 389.719 31.6C389.175 31.6 388.743 31.7387 388.423 32.016C388.103 32.2933 387.906 32.6613 387.831 33.12Z" fill="white"/>
<path d="M312.359 40H394.263V40.8H312.359V40Z" fill="white"/>
</svg>
